<svg xmlns="http://www.w3.org/2000/svg" width="135" height="135" fill="none"><path fill="#DEDEDE" d="M129.193 52.855a8.367 8.367 0 0 0-6.784-5.718L89.676 42.37 75.035 12.699a8.404 8.404 0 0 0-15.069 0L45.326 42.37 12.59 47.138a8.372 8.372 0 0 0-6.785 5.718 8.404 8.404 0 0 0 2.128 8.609l23.692 23.081-5.599 32.613a8.403 8.403 0 0 0 3.345 8.221 8.413 8.413 0 0 0 8.854.629l29.276-15.383 29.276 15.383a8.328 8.328 0 0 0 3.909.971 8.396 8.396 0 0 0 4.943-1.6 8.407 8.407 0 0 0 3.343-8.221l-5.599-32.613 23.691-23.081a8.394 8.394 0 0 0 2.129-8.61Z"/><path fill="#E3E3E3" d="M67.5 8.021a8.41 8.41 0 0 0-7.534 4.679l-14.64 29.67-32.736 4.768a8.372 8.372 0 0 0-6.785 5.718 8.404 8.404 0 0 0 2.128 8.609l23.692 23.081-5.599 32.613a8.403 8.403 0 0 0 3.345 8.221 8.413 8.413 0 0 0 8.854.629L67.5 110.626V8.021Z"/><path fill="#33363A" d="M100.687 128.479a9.87 9.87 0 0 1-4.612-1.146L67.501 112.32l-28.579 15.016a9.911 9.911 0 0 1-10.427-.738c-3.08-2.241-4.59-5.953-3.947-9.693l5.465-31.835L6.886 62.539c-2.674-2.598-3.66-6.581-2.508-10.145 1.179-3.628 4.246-6.21 8.002-6.742L44.33 41l14.291-28.964c1.654-3.351 5.14-5.515 8.88-5.515 3.742 0 7.228 2.165 8.879 5.516L90.672 41l31.954 4.654c3.753.531 6.819 3.114 7.995 6.74 1.155 3.562.17 7.545-2.509 10.147L104.986 85.07l5.465 31.835a9.851 9.851 0 0 1-3.938 9.688 9.857 9.857 0 0 1-5.826 1.886Zm-33.186-19.353c.24 0 .479.058.698.172l29.276 15.383c2.289 1.214 5.194.995 7.273-.515a6.867 6.867 0 0 0 2.746-6.753L101.896 84.8a1.5 1.5 0 0 1 .432-1.328l23.691-23.081a6.938 6.938 0 0 0 1.748-7.073c-.819-2.526-2.952-4.325-5.567-4.695l-32.74-4.769a1.5 1.5 0 0 1-1.129-.821L73.69 13.363a6.944 6.944 0 0 0-6.189-3.842 6.946 6.946 0 0 0-6.19 3.843l-14.64 29.67a1.5 1.5 0 0 1-1.129.821l-32.736 4.768c-2.62.371-4.753 2.17-5.575 4.697-.802 2.483-.117 5.259 1.747 7.07l23.694 23.083a1.5 1.5 0 0 1 .432 1.328l-5.599 32.613a6.865 6.865 0 0 0 2.749 6.754c2.097 1.51 4.992 1.722 7.27.516l29.28-15.385a1.49 1.49 0 0 1 .697-.173Z"/><path fill="#FF8F8F" d="M67.5 94.605c12.112 0 21.931-9.819 21.931-21.931S79.612 50.743 67.5 50.743s-21.931 9.819-21.931 21.931S55.388 94.605 67.5 94.605Z"/><path fill="#FF1A1A" d="M89.431 72.674c0 9.277-9.819 16.8-21.931 16.8s-21.931-7.522-21.931-16.8c0-9.275 9.818-16.797 21.931-16.797 12.111 0 21.931 7.521 21.931 16.797Z"/><path fill="#fff" d="M45.569 72.674c0 12.113 9.818 21.932 21.931 21.932 12.111 0 21.931-9.818 21.931-21.932H45.569Z"/><path fill="#D8E5EA" d="M67.5 89.474c12.111 0 21.931-7.522 21.931-16.8H45.569c0 9.277 9.819 16.8 21.931 16.8Z"/><path fill="#33363A" d="M67.5 96.105c-12.92 0-23.431-10.511-23.431-23.432 0-12.919 10.511-23.43 23.431-23.43 12.92 0 23.431 10.511 23.431 23.43 0 12.921-10.511 23.432-23.431 23.432Zm0-43.861c-11.266 0-20.431 9.165-20.431 20.43 0 11.266 9.165 20.432 20.431 20.432 11.266 0 20.431-9.166 20.431-20.432 0-11.265-9.165-20.43-20.431-20.43Z"/><path fill="#33363A" d="M89.431 74.174H45.569a1.5 1.5 0 1 1 0-3H89.43a1.5 1.5 0 1 1 .001 3Z"/><path fill="#A7BBC1" d="M67.5 82.439a7.252 7.252 0 1 0 0-14.504 7.252 7.252 0 0 0 0 14.504Z"/><path fill="#fff" d="M67.5 79.974a7.252 7.252 0 1 0 0-14.504 7.252 7.252 0 0 0 0 14.504Z"/><path fill="#D8E5EA" d="M62.372 77.85a7.251 7.251 0 1 1 10.255-10.256"/><path fill="#33363A" d="M67.5 81.472a8.697 8.697 0 0 1-6.188-2.562c-3.412-3.413-3.412-8.965-.001-12.377A8.695 8.695 0 0 1 67.5 63.97c2.338 0 4.535.911 6.188 2.563 3.412 3.412 3.412 8.965 0 12.377a8.697 8.697 0 0 1-6.188 2.562Zm0-14.502a5.71 5.71 0 0 0-4.067 1.685 5.76 5.76 0 0 0 0 8.135 5.714 5.714 0 0 0 4.067 1.683c1.536 0 2.98-.598 4.066-1.684a5.757 5.757 0 0 0 0-8.134A5.71 5.71 0 0 0 67.5 66.97ZM67.5 111.597a1.5 1.5 0 0 1-1.5-1.5V96.192a1.5 1.5 0 1 1 3 0v13.904a1.5 1.5 0 0 1-1.5 1.501Z"/></svg>