<svg xmlns="http://www.w3.org/2000/svg" width="72" height="72" fill="none"><path fill="#fff" d="m44.606 7.05 21.818 21.82c3.784 3.786 3.778 10.487-.002 14.266L44.605 64.951c-3.94 3.937-10.327 3.937-14.265-.001-3.935-3.942-3.938-10.324.002-14.264l4.598-4.596H12.827c-5.57 0-10.086-4.517-10.086-10.087 0-5.571 4.516-10.085 10.086-10.085h22.117l-4.604-4.604a10.068 10.068 0 0 1-2.952-7.133c0-2.579.985-5.163 2.954-7.132 3.94-3.937 10.324-3.937 14.264.001Z"/><path fill="#E9F1F4" d="M69.253 35.874c.032 2.665-.909 5.34-2.831 7.262L44.605 64.951c-3.94 3.937-10.327 3.937-14.265-.001-3.935-3.942-3.938-10.324.002-14.264l4.598-4.596H12.827c-5.57 0-10.086-4.517-10.086-10.087 0-.044.006-.086.006-.13h66.506Z"/><path fill="#D8E5EA" d="M30.34 21.313a10.06 10.06 0 0 1-1.6-12.156L48.45 28.87c3.783 3.786 3.778 10.486-.003 14.266L28.74 62.842c-2.22-3.856-1.694-8.862 1.602-12.157l4.598-4.595H12.827c-5.57 0-10.086-4.517-10.086-10.087 0-5.572 4.516-10.085 10.086-10.085H34.944l-4.604-4.605Z"/><path fill="#E9F1F4" d="M51.285 36H2.741c0-5.57 4.517-10.082 10.086-10.082H34.944l-4.604-4.605a10.06 10.06 0 0 1-1.6-12.156L48.45 28.87c1.89 1.892 2.834 4.511 2.834 7.13Z"/><path fill="#33363A" d="M1.94 36.003c0-6.002 4.885-10.885 10.887-10.885h20.185l-3.238-3.24a10.828 10.828 0 0 1-3.187-7.698c0-2.907 1.133-5.64 3.189-7.697 4.245-4.241 11.152-4.24 15.396 0l21.817 21.822c1.951 1.951 3.07 4.756 3.07 7.696 0 2.942-1.12 5.749-3.072 7.7L45.171 65.517c-4.247 4.243-11.154 4.242-15.397 0a10.826 10.826 0 0 1-3.186-7.7 10.81 10.81 0 0 1 3.188-7.697l3.232-3.23h-20.18c-6.003 0-10.887-4.883-10.887-10.886Zm33.804-10.085a.799.799 0 0 1-.8.8H12.827c-5.12 0-9.286 4.166-9.286 9.285 0 5.121 4.166 9.287 9.286 9.287H34.94a.801.801 0 0 1 .566 1.366l-4.598 4.596a9.224 9.224 0 0 0-2.72 6.564c0 2.48.966 4.813 2.718 6.569 3.62 3.619 9.512 3.62 13.134 0l21.816-21.814c1.654-1.655 2.603-4.05 2.603-6.57 0-2.518-.948-4.911-2.6-6.565L44.04 7.616c-3.621-3.618-9.513-3.62-13.134-.001a9.228 9.228 0 0 0-2.72 6.566c0 2.478.966 4.81 2.719 6.567l4.603 4.604a.8.8 0 0 1 .235.566Z"/><path fill="#33363A" d="M34.14 46.147c0-.205.078-.41.234-.566l4.847-4.85a.8.8 0 0 1 1.132 1.13l-4.848 4.852a.8.8 0 0 1-1.365-.566ZM34.14 25.853a.8.8 0 0 1 1.365-.566l4.848 4.85a.801.801 0 0 1-1.132 1.132l-4.847-4.85a.8.8 0 0 1-.234-.566Z"/><path fill="#FF8F8F" d="M42.828 45.293a9.293 9.293 0 1 1 0-18.587 9.293 9.293 0 0 1 0 18.587Z"/><path fill="#FF1A1A" d="M42.828 45.293c-3.932 0-7.119-4.161-7.119-9.294 0-5.132 3.187-9.292 7.12-9.292 3.928 0 7.117 4.16 7.117 9.292 0 5.133-3.189 9.294-7.118 9.294Z"/><path fill="#fff" d="M42.828 26.707a9.293 9.293 0 1 0 0 18.586V26.707Z"/><path fill="#D8E5EA" d="M35.71 36c0 5.132 3.186 9.293 7.118 9.293V26.707c-3.932 0-7.119 4.16-7.119 9.293Z"/><path fill="#33363A" d="M32.734 36c0-5.565 4.528-10.093 10.094-10.093 5.565 0 10.092 4.528 10.092 10.093s-4.527 10.093-10.092 10.093c-5.566 0-10.094-4.528-10.094-10.093Zm18.586 0c0-4.683-3.81-8.493-8.492-8.493-4.684 0-8.494 3.81-8.494 8.493s3.81 8.493 8.494 8.493c4.682 0 8.492-3.81 8.492-8.493Z"/><path fill="#33363A" d="M42.028 45.293V26.707a.8.8 0 1 1 1.6 0v18.586a.8.8 0 1 1-1.6 0Z"/><path fill="#A7BBC1" d="M38.69 36a3.072 3.072 0 1 0 6.146 0 3.072 3.072 0 0 0-6.145 0Z"/><path fill="#fff" d="M39.735 36a3.073 3.073 0 1 0 6.145 0 3.073 3.073 0 0 0-6.145 0Z"/><path fill="#D8E5EA" d="M40.634 33.827a3.073 3.073 0 0 1 4.346 4.345"/><path fill="#33363A" d="M38.934 36a3.85 3.85 0 0 1 1.134-2.739 3.848 3.848 0 0 1 2.74-1.134c1.034 0 2.007.403 2.738 1.134A3.85 3.85 0 0 1 46.68 36a3.846 3.846 0 0 1-1.134 2.738 3.845 3.845 0 0 1-2.739 1.135 3.848 3.848 0 0 1-2.738-1.135A3.845 3.845 0 0 1 38.934 36Zm6.146 0c0-.608-.236-1.178-.666-1.608-.429-.429-1-.665-1.607-.665-.608 0-1.178.236-1.608.666-.429.429-.665 1-.665 1.607s.236 1.178.666 1.606c.429.43 1 .666 1.607.666s1.177-.236 1.607-.665c.43-.43.666-1 .666-1.607ZM22.927 38.536c0-.204.078-.41.234-.565L25.133 36l-1.971-1.97a.8.8 0 0 1 1.13-1.132l2.538 2.536c.3.3.3.832 0 1.132l-2.537 2.536a.8.8 0 0 1-1.366-.566Z"/><path fill="#33363A" d="M19.739 36a.8.8 0 0 1 .8-.8h5.726a.8.8 0 1 1 0 1.6h-5.726a.8.8 0 0 1-.8-.8ZM17.333 36a.8.8 0 0 1 1.366-.565.826.826 0 0 1 0 1.13.802.802 0 0 1-1.131 0 .808.808 0 0 1-.235-.565ZM14.933 36a.8.8 0 0 1 1.366-.565.825.825 0 0 1 0 1.13.8.8 0 0 1-1.366-.565ZM12.533 36a.8.8 0 0 1 1.366-.565c.299.298.299.837 0 1.13a.802.802 0 0 1-1.131 0 .799.799 0 0 1-.235-.565ZM12.333 18.18c0-.204.078-.409.234-.565l1.972-1.97-1.972-1.971a.8.8 0 0 1 1.131-1.132l2.538 2.536c.3.3.3.832 0 1.132l-2.538 2.537a.8.8 0 0 1-1.365-.566Z"/><path fill="#33363A" d="M9.145 15.644a.8.8 0 0 1 .8-.8h5.725a.8.8 0 1 1 0 1.6H9.945a.8.8 0 0 1-.8-.8ZM6.742 15.643c0-.208.085-.416.234-.566a.809.809 0 0 1 .566-.234.81.81 0 0 1 .565.234.825.825 0 0 1 0 1.131.809.809 0 0 1-.565.235.828.828 0 0 1-.566-.23.82.82 0 0 1-.234-.57ZM4.342 15.643c0-.208.085-.416.234-.566a.809.809 0 0 1 .566-.234.81.81 0 0 1 .565.234.825.825 0 0 1 0 1.131.809.809 0 0 1-.565.235.799.799 0 0 1-.8-.8ZM1.942 15.643c0-.208.085-.416.234-.566a.809.809 0 0 1 .566-.234.81.81 0 0 1 .565.234.825.825 0 0 1 0 1.131.809.809 0 0 1-.565.235.828.828 0 0 1-.566-.23.83.83 0 0 1-.234-.57ZM12.333 58.892c0-.205.078-.41.234-.566l1.972-1.97-1.972-1.97a.8.8 0 0 1 1.131-1.133l2.538 2.537c.3.3.3.831 0 1.132l-2.538 2.536a.8.8 0 0 1-1.365-.566Z"/><path fill="#33363A" d="M9.145 56.356a.8.8 0 0 1 .8-.8h5.725a.8.8 0 1 1 0 1.6H9.945a.8.8 0 0 1-.8-.8ZM6.742 56.357a.799.799 0 0 1 .8-.8c.208 0 .415.086.565.23.299.304.299.837 0 1.136a.808.808 0 0 1-.565.234.81.81 0 0 1-.566-.234.808.808 0 0 1-.234-.566ZM4.342 56.357a.799.799 0 0 1 1.365-.565c.299.293.299.832 0 1.13a.808.808 0 0 1-.565.235.81.81 0 0 1-.566-.234.808.808 0 0 1-.234-.566ZM1.942 56.357a.799.799 0 0 1 .8-.8c.208 0 .415.086.565.23.299.304.299.837 0 1.136a.808.808 0 0 1-.565.234.81.81 0 0 1-.566-.234.808.808 0 0 1-.234-.566Z"/></svg>