<svg width="72" height="72" viewBox="0 0 72 72" fill="none" xmlns="http://www.w3.org/2000/svg">
<path d="M44.6064 7.05011L66.424 28.8709C70.2085 32.656 70.2021 39.3568 66.4219 43.1365L44.6053 64.9509C40.6645 68.888 34.2784 68.888 30.3397 64.9498C26.4053 61.008 26.4021 54.6256 30.3419 50.6858L34.9397 46.0901L12.8272 46.0901C7.25654 46.0901 2.74081 41.5733 2.74081 36.0032C2.74081 30.432 7.25654 25.9184 12.8272 25.9184L34.944 25.9184L30.3397 21.3136C28.3728 19.3424 27.3877 16.7621 27.3877 14.1808C27.3877 11.6021 28.3733 9.01811 30.3419 7.04904C34.2821 3.11197 40.6656 3.11197 44.6064 7.05011Z" fill="white"/>
<path d="M69.2533 35.8736C69.2848 38.5387 68.344 41.2149 66.4219 43.1365L44.6053 64.9509C40.6645 68.888 34.2784 68.888 30.3397 64.9499C26.4053 61.008 26.4021 54.6256 30.3419 50.6859L34.9397 46.0901L12.8272 46.0901C7.25653 46.0901 2.7408 41.5733 2.7408 36.0032C2.7408 35.9595 2.7472 35.9173 2.7472 35.8736L69.2533 35.8736Z" fill="#E9F1F4"/>
<path d="M30.3397 21.3131C28.3728 19.3419 27.3877 16.7616 27.3877 14.1803C27.3877 12.4448 27.8448 10.7077 28.7397 9.1568L48.4512 28.8704C52.2336 32.6555 52.2293 39.3563 48.448 43.136L28.7397 62.8421C26.52 58.9861 27.0459 53.9797 30.3419 50.6853L34.9397 46.0896L16.9669 46.0896L12.8272 46.0896C7.25654 46.0896 2.74081 41.5728 2.74081 36.0027C2.74081 30.4315 7.25654 25.9179 12.8272 25.9179L16.9712 25.9179L34.944 25.9179L30.3397 21.3131Z" fill="#D8E5EA"/>
<path d="M51.2853 36L2.7408 36C2.74187 30.4299 7.25761 25.9179 12.8272 25.9179L16.9712 25.9179L34.944 25.9179L30.3397 21.3131C28.3728 19.3419 27.3877 16.7616 27.3877 14.1803C27.3877 12.4448 27.8448 10.7077 28.7397 9.1568L48.4512 28.8704C50.3408 30.7621 51.2853 33.3813 51.2853 36Z" fill="#E9F1F4"/>
<path d="M1.94081 36.0026C1.94081 30.001 6.82454 25.1179 12.8272 25.1179L33.0123 25.1179L29.7739 21.8784C27.7184 19.8187 26.5872 17.0853 26.5872 14.1803C26.5872 11.2731 27.7195 8.53918 29.776 6.48265C34.0213 2.24158 40.9275 2.24212 45.1717 6.48372L66.9893 28.3051C68.9403 30.2565 70.0592 33.0613 70.0592 36.0011C70.0592 38.9429 68.9392 41.7499 66.9872 43.7019L45.1707 65.5163C40.9243 69.7589 34.0171 69.7584 29.7739 65.5152C27.7189 63.4571 26.5877 60.7227 26.5877 57.816C26.5872 54.9088 27.7195 52.1755 29.776 50.1195L33.008 46.8891L12.8272 46.8891C6.82454 46.8896 1.94081 42.0058 1.94081 36.0026ZM35.744 25.9184C35.744 26.0213 35.7243 26.1253 35.6832 26.2245C35.5595 26.5237 35.2677 26.7184 34.944 26.7184L12.8272 26.7184C7.70667 26.7184 3.54081 30.8837 3.54081 36.0032C3.54081 41.1242 7.70721 45.2901 12.8272 45.2901L34.9397 45.2901C35.2629 45.2901 35.5547 45.4853 35.6789 45.784C35.8037 46.0832 35.7339 46.4272 35.5056 46.656L30.9077 51.2517C29.1541 53.0053 28.1883 55.3371 28.1883 57.8165C28.1883 60.296 29.1536 62.6288 30.9061 64.3845C34.5253 68.0037 40.4176 68.0043 44.04 64.3851L65.856 42.5707C67.5104 40.9163 68.4592 38.5216 68.4592 36.0011C68.4592 33.4827 67.5109 31.0896 65.8581 29.4363L44.0405 7.61598C40.4197 3.99785 34.528 3.99678 30.9072 7.61492C29.1536 9.36905 28.1872 11.7013 28.1872 14.1808C28.1872 16.6587 29.1531 18.9915 30.9056 20.7483L35.5093 25.3525C35.6624 25.5056 35.744 25.7099 35.744 25.9184Z" fill="#33363A"/>
<path d="M34.1397 46.1467C34.1397 45.9419 34.2176 45.7371 34.3739 45.5808L39.2213 40.7301C39.5339 40.4176 40.0405 40.4176 40.3531 40.7301C40.6656 41.0427 40.6651 41.5493 40.3531 41.8619L35.5051 46.7125C35.1931 47.0251 34.6864 47.0251 34.3739 46.7125C34.2176 46.5563 34.1397 46.3515 34.1397 46.1467Z" fill="#33363A"/>
<path d="M34.1396 25.8533C34.1396 25.6485 34.2174 25.4437 34.3737 25.2875C34.6862 24.9755 35.1929 24.9755 35.5049 25.2875L40.3529 30.1371C40.6649 30.4496 40.6649 30.9563 40.3529 31.2688C40.0404 31.5808 39.5337 31.5808 39.2212 31.2688L34.3737 26.4192C34.2174 26.2624 34.1396 26.0576 34.1396 25.8533Z" fill="#33363A"/>
<path d="M42.8283 45.2928C37.6949 45.2928 33.5344 41.1317 33.5344 35.9995C33.5344 30.8672 37.6949 26.7067 42.8283 26.7067C47.9595 26.7067 52.12 30.8672 52.12 35.9995C52.12 41.1323 47.9595 45.2928 42.8283 45.2928Z" fill="#FF8F8F"/>
<path d="M42.8282 45.2928C38.896 45.2928 35.7093 41.1317 35.7093 35.9995C35.7093 30.8672 38.896 26.7067 42.8282 26.7067C46.7573 26.7067 49.9461 30.8672 49.9461 35.9995C49.9456 41.1323 46.7573 45.2928 42.8282 45.2928Z" fill="#FF1A1A"/>
<path d="M42.8282 26.7072C37.6949 26.7072 33.5344 30.8677 33.5344 36C33.5344 41.1322 37.6949 45.2933 42.8282 45.2933L42.8282 26.7072Z" fill="white"/>
<path d="M35.7093 36C35.7093 41.1322 38.896 45.2933 42.8282 45.2933L42.8282 26.7072C38.896 26.7072 35.7093 30.8677 35.7093 36Z" fill="#D8E5EA"/>
<path d="M32.7344 36C32.7344 30.4347 37.2624 25.9072 42.8283 25.9072C48.3931 25.9072 52.92 30.4347 52.92 36C52.92 41.5653 48.3931 46.0933 42.8282 46.0933C37.2624 46.0928 32.7344 41.5653 32.7344 36ZM51.32 36C51.32 31.3173 47.5104 27.5072 42.8283 27.5072C38.1445 27.5072 34.3344 31.3173 34.3344 36C34.3344 40.6832 38.1445 44.4933 42.8282 44.4933C47.5104 44.4928 51.32 40.6827 51.32 36Z" fill="#33363A"/>
<path d="M42.0282 45.2928L42.0282 26.7072C42.0282 26.2651 42.3861 25.9072 42.8282 25.9072C43.2704 25.9072 43.6282 26.2651 43.6282 26.7072L43.6282 45.2933C43.6282 45.7355 43.2704 46.0933 42.8282 46.0933C42.3861 46.0933 42.0282 45.7349 42.0282 45.2928Z" fill="#33363A"/>
<path d="M38.6907 36C38.6907 37.6969 40.0663 39.0725 41.7632 39.0725C43.4601 39.0725 44.8358 37.6969 44.8358 36C44.8358 34.3031 43.4601 32.9275 41.7632 32.9275C40.0663 32.9275 38.6907 34.3031 38.6907 36Z" fill="#A7BBC1"/>
<path d="M39.7349 36C39.7349 37.6969 41.1106 39.0725 42.8075 39.0725C44.5044 39.0725 45.88 37.6969 45.88 36C45.88 34.3031 44.5044 32.9275 42.8075 32.9275C41.1106 32.9275 39.7349 34.3031 39.7349 36Z" fill="white"/>
<path d="M40.6341 33.8272C41.8341 32.6272 43.7808 32.6272 44.9797 33.8272C46.1797 35.0277 46.1797 36.9728 44.9797 38.1723" fill="#D8E5EA"/>
<path d="M38.9344 36C38.9344 34.9659 39.3371 33.9931 40.0683 33.2613C40.8 32.5296 41.7728 32.1275 42.8075 32.1275C43.8421 32.1275 44.8149 32.5301 45.5461 33.2613C46.2773 33.9931 46.68 34.9659 46.68 36C46.68 37.0341 46.2773 38.0069 45.5456 38.7381C44.8149 39.4693 43.8427 39.8725 42.8075 39.8725C41.7728 39.8725 40.8 39.4693 40.0688 38.7381C39.3371 38.0069 38.9344 37.0347 38.9344 36ZM45.08 36C45.08 35.3925 44.8437 34.8219 44.4139 34.3925C43.9851 33.9632 43.4144 33.7269 42.8069 33.7269C42.1995 33.7269 41.6288 33.9632 41.1995 34.3925C40.7701 34.8219 40.5339 35.3925 40.5339 36C40.5339 36.6069 40.7701 37.1776 41.1995 37.6064C41.6288 38.0363 42.1995 38.2725 42.8069 38.2725C43.4144 38.2725 43.9845 38.0363 44.4139 37.6069C44.8437 37.1776 45.08 36.6069 45.08 36Z" fill="#33363A"/>
<path d="M22.9268 38.5365C22.9268 38.3317 23.0047 38.1269 23.1609 37.9706L25.1327 36L23.1615 34.0293C22.8489 33.7168 22.8489 33.2101 23.1615 32.8976C23.4735 32.585 23.9801 32.585 24.2927 32.8976L26.8303 35.4341C27.13 35.7338 27.13 36.2656 26.8303 36.5658L24.2927 39.1024C23.9801 39.4144 23.4735 39.4144 23.1615 39.1024C23.0052 38.9456 22.9268 38.7413 22.9268 38.5365Z" fill="#33363A"/>
<path d="M19.7386 36C19.7386 35.5578 20.097 35.2 20.5386 35.2L26.2645 35.2C26.7061 35.2 27.0645 35.5578 27.0645 36C27.0645 36.4421 26.7061 36.8 26.2645 36.8L20.5386 36.8C20.097 36.8 19.7386 36.4416 19.7386 36Z" fill="#33363A"/>
<path d="M17.3333 36C17.3333 35.7866 17.4186 35.584 17.568 35.4346C17.7173 35.2853 17.9253 35.2 18.1333 35.2C18.3466 35.2 18.5493 35.2853 18.6992 35.4346C18.9978 35.7333 18.9978 36.2666 18.6992 36.5653C18.5493 36.7146 18.3466 36.8 18.1333 36.8C17.9253 36.8 17.7173 36.7146 17.568 36.5653C17.4186 36.416 17.3333 36.208 17.3333 36Z" fill="#33363A"/>
<path d="M14.9333 36C14.9333 35.7866 15.0187 35.584 15.168 35.4346C15.3168 35.2853 15.5253 35.2 15.7333 35.2C15.9467 35.2 16.1493 35.2853 16.2992 35.4346C16.5979 35.7333 16.5979 36.2666 16.2992 36.5653C16.1499 36.7146 15.9472 36.8 15.7333 36.8C15.5253 36.8 15.3173 36.7146 15.168 36.5653C15.0187 36.416 14.9333 36.208 14.9333 36Z" fill="#33363A"/>
<path d="M12.5333 36C12.5333 35.792 12.6186 35.584 12.768 35.4346C12.9173 35.2853 13.1205 35.2 13.3333 35.2C13.5466 35.2 13.7493 35.2853 13.8992 35.4346C14.1978 35.7333 14.1978 36.272 13.8992 36.5653C13.7493 36.7146 13.5466 36.8 13.3333 36.8C13.1253 36.8 12.9173 36.7146 12.768 36.5653C12.6186 36.416 12.5333 36.2133 12.5333 36Z" fill="#33363A"/>
<path d="M12.3332 18.1808C12.3332 17.976 12.4111 17.7712 12.5673 17.6149L14.5385 15.6443L12.5673 13.6736C12.2548 13.3611 12.2548 12.8544 12.5673 12.5419C12.8793 12.2293 13.386 12.2293 13.6985 12.5419L16.2361 15.0784C16.5359 15.3781 16.5359 15.9099 16.2361 16.2101L13.6985 18.7467C13.386 19.0587 12.8793 19.0587 12.5673 18.7467C12.4111 18.5904 12.3332 18.3856 12.3332 18.1808Z" fill="#33363A"/>
<path d="M9.14453 15.6443C9.14453 15.2021 9.50293 14.8443 9.94453 14.8443L15.6704 14.8443C16.112 14.8443 16.4704 15.2021 16.4704 15.6443C16.4704 16.0864 16.112 16.4443 15.6704 16.4443L9.94453 16.4443C9.50293 16.4443 9.14453 16.0864 9.14453 15.6443Z" fill="#33363A"/>
<path d="M6.74184 15.6427C6.74184 15.4347 6.82665 15.2267 6.97598 15.0773C7.12531 14.928 7.33331 14.8427 7.54184 14.8427C7.74984 14.8427 7.95731 14.928 8.10718 15.0773C8.40584 15.376 8.40584 15.9093 8.10718 16.208C7.95784 16.3573 7.74984 16.4427 7.54184 16.4427C7.33331 16.4427 7.12585 16.3573 6.97598 16.2133C6.82665 16.0587 6.74184 15.856 6.74184 15.6427Z" fill="#33363A"/>
<path d="M4.34188 15.6427C4.34188 15.4347 4.42668 15.2267 4.57602 15.0773C4.72535 14.928 4.93335 14.8427 5.14188 14.8427C5.34988 14.8427 5.55735 14.928 5.70721 15.0773C6.00588 15.376 6.00588 15.9093 5.70721 16.208C5.55788 16.3573 5.34988 16.4427 5.14188 16.4427C4.93335 16.4427 4.72588 16.3573 4.57602 16.208C4.42668 16.0587 4.34188 15.856 4.34188 15.6427Z" fill="#33363A"/>
<path d="M1.94186 15.6427C1.94186 15.4347 2.02665 15.2267 2.17599 15.0773C2.32532 14.928 2.53332 14.8427 2.74186 14.8427C2.94986 14.8427 3.15732 14.928 3.30719 15.0773C3.60586 15.376 3.60586 15.9093 3.30719 16.208C3.15786 16.3573 2.94986 16.4427 2.74186 16.4427C2.53332 16.4427 2.32585 16.3573 2.17599 16.2133C2.02665 16.0587 1.94186 15.8507 1.94186 15.6427Z" fill="#33363A"/>
<path d="M12.3332 58.8923C12.3332 58.6875 12.4111 58.4827 12.5673 58.3264L14.5385 56.3557L12.5673 54.3851C12.2548 54.0725 12.2548 53.5659 12.5673 53.2533C12.8793 52.9408 13.386 52.9408 13.6985 53.2533L16.2361 55.7899C16.5359 56.0896 16.5359 56.6213 16.2361 56.9216L13.6985 59.4581C13.386 59.7701 12.8793 59.7701 12.5673 59.4581C12.4111 59.3013 12.3332 59.0971 12.3332 58.8923Z" fill="#33363A"/>
<path d="M9.14453 56.3557C9.14453 55.9136 9.50293 55.5557 9.94453 55.5557L15.6704 55.5557C16.112 55.5557 16.4704 55.9136 16.4704 56.3557C16.4704 56.7979 16.112 57.1557 15.6704 57.1557L9.94453 57.1557C9.50293 57.1557 9.14453 56.7973 9.14453 56.3557Z" fill="#33363A"/>
<path d="M6.74184 56.3573C6.74184 56.144 6.82665 55.9413 6.97598 55.792C7.12531 55.6426 7.33331 55.5573 7.54184 55.5573C7.74984 55.5573 7.95731 55.6426 8.10718 55.7866C8.40584 56.0906 8.40584 56.624 8.10718 56.9226C7.95784 57.072 7.74984 57.1573 7.54184 57.1573C7.33331 57.1573 7.12585 57.072 6.97598 56.9226C6.82665 56.7733 6.74184 56.5653 6.74184 56.3573Z" fill="#33363A"/>
<path d="M4.34188 56.3573C4.34188 56.144 4.42668 55.9413 4.57602 55.792C4.72535 55.6426 4.93335 55.5573 5.14188 55.5573C5.34988 55.5573 5.55735 55.6426 5.70721 55.792C6.00588 56.0853 6.00588 56.624 5.70721 56.9226C5.55788 57.072 5.34988 57.1573 5.14188 57.1573C4.93335 57.1573 4.72588 57.072 4.57602 56.9226C4.42668 56.7733 4.34188 56.5653 4.34188 56.3573Z" fill="#33363A"/>
<path d="M1.94186 56.3573C1.94186 56.144 2.02665 55.9413 2.17599 55.792C2.32532 55.6426 2.53332 55.5573 2.74186 55.5573C2.94986 55.5573 3.15732 55.6426 3.30719 55.7866C3.60586 56.0906 3.60586 56.624 3.30719 56.9226C3.15786 57.072 2.94986 57.1573 2.74186 57.1573C2.53332 57.1573 2.32585 57.072 2.17599 56.9226C2.02665 56.7733 1.94186 56.5653 1.94186 56.3573Z" fill="#33363A"/>
</svg>
