<?xml version="1.0" encoding="utf-8"?>
<!-- Generator: Adobe Illustrator 16.0.0, SVG Export Plug-In . SVG Version: 6.00 Build 0)  -->
<!DOCTYPE svg PUBLIC "-//W3C//DTD SVG 1.1//EN" "http://www.w3.org/Graphics/SVG/1.1/DTD/svg11.dtd">
<svg version="1.1" id="Layer_1" xmlns="http://www.w3.org/2000/svg" xmlns:xlink="http://www.w3.org/1999/xlink" x="0px" y="0px"
	 width="135px" height="135px" viewBox="0 0 135 135" style="enable-background:new 0 0 135 135;" xml:space="preserve">
<style type="text/css">
<![CDATA[
	.st0{fill:#465652;}
	.st1{fill:#AAB9BA;}
	.st2{fill:#47C67B;}
	.st3{fill:#AAC8D1;}
	.st4{fill:none;stroke:#E83834;stroke-width:6;stroke-linecap:round;stroke-linejoin:round;stroke-miterlimit:10;}
	.st5{fill:#7BC67B;}
	.st6{fill:#7BC7FF;}
	.st7{fill:#7C34C1;}
	.st8{fill:#7C8D96;}
	.st9{fill:#AD2707;}
	.st10{fill:#ADB8BC;}
	.st11{fill:#107510;}
	.st12{fill:#7FE5D8;}
	.st13{fill:#AF4AD1;}
	.st14{fill:#E02B7E;}
	.st15{fill:#E04038;}
	.st16{fill:#AFD7DD;}
	.st17{fill:#E0A010;}
	.st18{fill:#E0D5A4;}
	.st19{fill:#12B2B2;}
	.st20{fill:#12D66B;}
	.st21{fill:#E1A9FF;}
	.st22{fill:#1362A8;}
	.st23{fill:#E2378D;}
	.st24{fill:#E29C37;}
	.st25{fill:#E2B90E;}
	.st26{fill:#E2BF91;}
	.st27{fill:#E2CBAA;}
	.st28{fill:#14A594;}
	.st29{fill:#E4E9ED;}
	.st30{fill:#4A5D60;}
	.st31{fill:#E5B076;}
	.st32{fill:#E5B1C4;}
	.st33{fill:#E5E4C3;}
	.st34{fill:#4B6466;}
	.st35{fill:#E6FF2E;}
	.st36{fill:#18AA67;}
	.st37{fill:#E86207;}
	.st38{fill:#E8A113;}
	.st39{fill:#E8B5A6;}
	.st40{fill:#E8E8ED;}
	.st41{fill:#4E5154;}
	.st42{fill:#E9F1F4;}
	.st43{fill:#4F4B48;}
	.st44{fill:#4F74E8;}
	.st45{fill:#808E93;}
	.st46{fill:#80949B;}
	.st47{fill:#80EDAC;}
	.st48{fill:#B122E0;}
	.st49{fill:#B2C4CC;}
	.st50{fill:#83D839;}
	.st51{fill:#B3C6C6;}
	.st52{fill:none;stroke:#33363A;stroke-width:3;stroke-linecap:round;stroke-linejoin:round;stroke-miterlimit:10;}
	.st53{fill:#1A8E1C;}
	.st54{fill:#1A93D6;}
	.st55{fill:#B50B0B;}
	.st56{fill:#1AD88F;}
	.st57{fill:#B5DAF4;}
	.st58{fill:#EA7B1F;}
	.st59{fill:#EA81BD;}
	.st60{fill:#87B8D6;}
	.st61{fill:#87C3F4;}
	.st62{fill:#EAC79D;}
	.st63{fill:#EADF11;}
	.st64{fill:#EAE4C5;}
	.st65{fill:#B78094;}
	.st66{fill:#8844D8;}
	.st67{fill:#EBF4F7;}
	.st68{fill:#893015;}
	.st69{fill:#89410B;}
	.st70{fill:#899BA3;}
	.st71{fill:#EDE3B9;}
	.st72{enable-background:new    ;}
	.st73{fill:#50FF9F;}
	.st74{fill:#EEDCF4;}
	.st75{fill:#EFA37D;}
	.st76{fill:#EFA3CC;}
	.st77{fill:#EFC99A;}
	.st78{fill:#54AF79;}
	.st79{fill:#BA503A;}
	.st80{fill:#BA8663;}
	.st81{fill:#8B4FE0;}
	.st82{fill:#58ED9B;}
	.st83{fill:#BC7DFF;}
	.st84{fill:#8D9AA3;}
	.st85{fill:#BCCAD3;}
	.st86{fill:#8DE4FF;}
	.st87{fill:#20B518;}
	.st88{fill:#BF44F2;}
	.st89{fill:#21CEA1;}
	.st90{fill:#BFDAE0;}
	.st91{fill:#F0FBFC;}
	.st92{fill:#F2D9A7;}
	.st93{fill:#F2EAC9;}
	.st94{fill:#24D1AF;}
	.st95{fill:#25931C;}
	.st96{fill:#F4C4B3;}
	.st97{fill:#F4D3A2;}
	.st98{fill:#F4D647;}
	.st99{fill:#F4D7B8;}
	.st100{fill:#F4EC8E;}
	.st101{fill:#5B524D;}
	.st102{fill:#F77819;}
	.st103{fill:#F79AE1;}
	.st104{fill:#5E707A;}
	.st105{fill:#F93585;}
	.st106{fill:#F95D5D;}
	.st107{fill:#F9C19B;}
	.st108{fill:#F9CB58;}
	.st109{fill:#F9D2B2;}
	.st110{fill:#F9F07D;}
	.st111{fill:#F9F1D2;}
	.st112{fill:#F9F4B7;}
	.st113{fill:#F9F9E4;}
	.st114{fill:#5F1DAA;}
	.st115{fill:#5F9AD6;}
	.st116{fill:#C0C0C4;}
	.st117{fill:#91EA57;}
	.st118{fill:#C12727;}
	.st119{fill:#C191A0;}
	.st120{fill:#923BB7;}
	.st121{fill:#93A0A3;}
	.st122{fill:#93F9EA;}
	.st123{fill:#93FF5A;}
	.st124{fill:#C4833D;}
	.st125{fill:#95A2A5;}
	.st126{fill:#965514;}
	.st127{fill:#96562C;}
	.st128{fill:#2AF42F;}
	.st129{fill:#C5D7DD;}
	.st130{fill:#C68510;}
	.st131{fill:#C6A86D;}
	.st132{fill:#C6BB8D;}
	.st133{fill:#2C9DCE;}
	.st134{fill:#FBFCF2;}
	.st135{fill:#FC70B0;}
	.st136{fill:#FCE6C8;}
	.st137{fill:#FCF7E3;}
	.st138{fill:#C90D6B;}
	.st139{fill:#FDFEFF;}
	.st140{fill:#FDFFDC;}
	.st141{fill:#FF1A1A;}
	.st142{fill:#FF5252;}
	.st143{fill:#FF5B00;}
	.st144{fill:#FF6155;}
	.st145{fill:#FF630D;}
	.st146{fill:#FF6666;}
	.st147{fill:#FF7676;}
	.st148{fill:#FF7900;}
	.st149{fill:#FF860D;}
	.st150{fill:#FF8B00;}
	.st151{fill:#FF8F8F;}
	.st152{fill:#FF900B;}
	.st153{fill:#FF908A;}
	.st154{fill:#FF960B;}
	.st155{fill:#FF9C0D;}
	.st156{fill:#FFA9D4;}
	.st157{fill:#FFAA00;}
	.st158{fill:#FFAD40;}
	.st159{fill:#FFAF10;}
	.st160{fill:#FFB000;}
	.st161{fill:#FFBE08;}
	.st162{fill:#FFBF31;}
	.st163{fill:#FFC200;}
	.st164{fill:#FFCAE8;}
	.st165{fill:#FFCCF5;}
	.st166{fill:#FFD00B;}
	.st167{fill:#FFD039;}
	.st168{fill:#FFD400;}
	.st169{fill:#FFD833;}
	.st170{fill:#FFDB80;}
	.st171{fill:#FFDDD2;}
	.st172{fill:#FFE6D4;}
	.st173{fill:#FFE6EB;}
	.st174{fill:#FFE98D;}
	.st175{fill:#FFECD2;}
	.st176{fill:#FFF1D9;}
	.st177{fill:#FFF24D;}
	.st178{fill:#FFF3C2;}
	.st179{fill:#FFF4C7;}
	.st180{fill:#FFF800;}
	.st181{fill:#FFF80D;}
	.st182{fill:#FFF9DE;}
	.st183{fill:#FFFBD7;}
	.st184{fill:#FFFBEB;}
	.st185{fill:#FFFCC0;}
	.st186{fill:#FFFCDC;}
	.st187{fill:#FFFFFA;}
	.st188{fill:#FFFFFF;}
	.st189{fill:#63797F;}
	.st190{fill:#65E529;}
	.st191{fill:#66310E;}
	.st192{fill:#663C17;}
	.st193{fill:#9A5AE5;}
	.st194{fill:#CA30EF;}
	.st195{fill:#6892FC;}
	.st196{fill:#9CFFC4;}
	.st197{fill:#CC4306;}
	.st198{fill:#CC549E;}
	.st199{fill:#9E3256;}
	.st200{fill:#CDFFBB;}
	.st201{fill:#CE86AF;}
	.st202{fill:#CED9DD;}
	
		.st203{fill:none;stroke:#33363A;stroke-width:3;stroke-linecap:round;stroke-linejoin:round;stroke-miterlimit:10;stroke-dasharray:6;}
	.st204{fill:#CFE1E2;}
	.st205{fill:#33363A;}
	.st206{fill:#34C166;}
	.st207{fill:#364B5B;}
	.st208{fill:#3662CE;}
	.st209{fill:#36C6FF;}
	.st210{fill:#6ADB9A;}
	.st211{fill:#6D5C4D;}
	.st212{fill:#6EBDF9;}
	.st213{fill:#0031FF;}
	.st214{fill:#0062FF;}
	.st215{fill:#0068FF;}
	.st216{fill:#0086FF;}
	.st217{fill:#009BE8;}
	.st218{fill:#00AAFF;}
	.st219{fill:#D271FF;}
	.st220{fill:#D363A9;}
	.st221{fill:#D3964C;}
	.st222{fill:#D3DFE2;}
	.st223{fill:#D3E0E2;}
	.st224{fill:#D3EFF4;}
	.st225{fill:#063B66;}
	.st226{fill:#D60909;}
	.st227{fill:#D61D1D;}
	.st228{fill:#D7F0FF;}
	.st229{fill:#09B285;}
	.st230{fill:#D8D593;}
	.st231{fill:#D8E2EA;}
	.st232{fill:#D8E5EA;}
	.st233{fill:#3E5054;}
	.st234{fill:#D988FF;}
	.st235{fill:#D9E7E8;}
	.st236{fill:#702252;}
	.st237{fill:#70D3E0;}
	.st238{fill:#A02FF2;}
	.st239{fill:#A2F255;}
	.st240{fill:#A35616;}
	.st241{fill:#A3CCCC;}
	.st242{fill:#0A6ADD;}
	.st243{fill:#A5145D;}
	.st244{fill:#A57555;}
	.st245{fill:#77D6FC;}
	.st246{fill:#7815CE;}
	.st247{fill:#A7BBC1;}
	.st248{fill:#DBD279;}
	.st249{fill:#0D5C9E;}
	.st250{fill:#A83C11;}
	.st251{fill:#A8633D;}
	.st252{fill:#A8A3E5;}
	.st253{fill:#DCE6EA;}
	.st254{fill:#DCE7EA;}
	.st255{fill:#A962E8;}
	.st256{fill:#DD2466;}
	.st257{fill:#DDC38A;}
	.st258{fill:#DDD2B1;}
	.st259{fill:#DFE7E8;}
	.st260{fill:#42B1E8;}
	.st261{fill:#436377;}
	.st262{fill:#43B530;}
]]>
</style>
<g>
	<g>
		<g>
			<path class="st157" d="M129.193,52.855c-0.988-3.049-3.615-5.27-6.784-5.718L89.676,42.37L75.035,12.699
				c-1.41-2.86-4.335-4.679-7.534-4.679s-6.123,1.818-7.535,4.679L45.326,42.37L12.59,47.138c-3.169,0.448-5.794,2.669-6.785,5.718
				c-0.981,3.039-0.165,6.382,2.128,8.609l23.692,23.081l-5.599,32.613c-0.542,3.152,0.754,6.336,3.345,8.221
				c2.601,1.871,6.024,2.126,8.854,0.629l29.276-15.383l29.276,15.383c1.229,0.652,2.571,0.971,3.909,0.971
				c1.742,0,3.478-0.535,4.943-1.6c2.589-1.885,3.884-5.068,3.343-8.221l-5.599-32.613l23.691-23.081
				C129.358,59.237,130.179,55.895,129.193,52.855z"/>
		</g>
		<g>
			<path class="st166" d="M67.5,8.021c-3.198,0.002-6.122,1.818-7.534,4.679L45.326,42.37L12.59,47.138
				c-3.169,0.448-5.794,2.669-6.785,5.718c-0.981,3.039-0.165,6.382,2.128,8.609l23.692,23.081l-5.599,32.613
				c-0.542,3.152,0.754,6.336,3.345,8.221c2.601,1.871,6.024,2.126,8.854,0.629L67.5,110.626V8.021z"/>
		</g>
		<g>
			<path class="st205" d="M100.687,128.479c-1.604,0-3.2-0.396-4.612-1.146L67.501,112.32l-28.579,15.016
				c-1.411,0.747-3.005,1.143-4.606,1.143c-2.097,0-4.11-0.65-5.821-1.881c-3.08-2.241-4.59-5.953-3.947-9.693l5.465-31.835
				L6.886,62.539c-2.674-2.598-3.66-6.581-2.508-10.145c1.179-3.628,4.246-6.21,8.002-6.742L44.33,41l14.291-28.964
				c1.654-3.351,5.14-5.515,8.88-5.515c3.742,0,7.228,2.165,8.879,5.516L90.672,41l31.954,4.654c3.753,0.531,6.819,3.114,7.995,6.74
				c1.155,3.562,0.17,7.545-2.509,10.147L104.986,85.07l5.465,31.835c0.642,3.74-0.867,7.452-3.938,9.688
				C104.812,127.827,102.798,128.479,100.687,128.479z M67.501,109.126c0.24,0,0.479,0.058,0.698,0.172l29.276,15.383
				c2.289,1.214,5.194,0.995,7.273-0.515c2.141-1.558,3.193-4.146,2.746-6.753L101.896,84.8c-0.083-0.487,0.078-0.983,0.432-1.328
				l23.691-23.081c1.868-1.814,2.553-4.59,1.748-7.073c-0.819-2.526-2.952-4.325-5.567-4.695l-32.74-4.769
				c-0.488-0.071-0.911-0.378-1.129-0.821L73.69,13.363c-1.151-2.334-3.58-3.842-6.189-3.842c-2.608,0-5.038,1.508-6.19,3.843
				l-14.64,29.67c-0.218,0.443-0.641,0.75-1.129,0.821l-32.736,4.768c-2.62,0.371-4.753,2.17-5.575,4.697
				c-0.802,2.483-0.117,5.259,1.747,7.07l23.694,23.083c0.354,0.344,0.515,0.841,0.432,1.328l-5.599,32.613
				c-0.448,2.606,0.605,5.194,2.749,6.754c2.097,1.51,4.992,1.722,7.27,0.516l29.28-15.385
				C67.021,109.184,67.261,109.126,67.501,109.126z"/>
		</g>
	</g>
	<g>
		<g>
			<circle class="st151" cx="67.5" cy="72.674" r="21.931"/>
		</g>
		<g>
			<path class="st141" d="M89.431,72.674c0,9.277-9.819,16.8-21.931,16.8c-12.112,0-21.931-7.522-21.931-16.8
				c0-9.275,9.818-16.797,21.931-16.797C79.611,55.877,89.431,63.398,89.431,72.674z"/>
		</g>
		<g>
			<path class="st188" d="M45.569,72.674c0,12.113,9.818,21.932,21.931,21.932c12.111,0,21.931-9.818,21.931-21.932H45.569z"/>
		</g>
		<g>
			<path class="st232" d="M67.5,89.474c12.111,0,21.931-7.522,21.931-16.8H45.569C45.569,81.951,55.388,89.474,67.5,89.474z"/>
		</g>
		<g>
			<path class="st205" d="M67.5,96.105c-12.92,0-23.431-10.511-23.431-23.432c0-12.919,10.511-23.43,23.431-23.43
				s23.431,10.511,23.431,23.43C90.931,85.594,80.42,96.105,67.5,96.105z M67.5,52.244c-11.266,0-20.431,9.165-20.431,20.43
				c0,11.266,9.165,20.432,20.431,20.432s20.431-9.166,20.431-20.432C87.931,61.409,78.766,52.244,67.5,52.244z"/>
		</g>
		<g>
			<path class="st205" d="M89.431,74.174H45.569c-0.829,0-1.5-0.671-1.5-1.5s0.671-1.5,1.5-1.5h43.861c0.829,0,1.5,0.671,1.5,1.5
				S90.259,74.174,89.431,74.174z"/>
		</g>
		<g>
			<g>
				<circle class="st247" cx="67.5" cy="75.187" r="7.252"/>
			</g>
			<g>
				<circle class="st188" cx="67.5" cy="72.722" r="7.252"/>
			</g>
			<g>
				<path class="st232" d="M62.372,77.85c-2.831-2.832-2.831-7.424,0-10.256c2.832-2.832,7.424-2.832,10.255,0"/>
			</g>
			<g>
				<path class="st205" d="M67.5,81.472c-2.337,0-4.535-0.91-6.188-2.562c-3.412-3.413-3.412-8.965-0.001-12.377
					c1.653-1.653,3.851-2.563,6.189-2.563s4.535,0.911,6.188,2.563c3.412,3.412,3.412,8.965,0,12.377
					C72.035,80.562,69.837,81.472,67.5,81.472z M67.5,66.97c-1.537,0-2.981,0.598-4.067,1.685c-2.242,2.243-2.242,5.892,0,8.135
					c1.085,1.085,2.53,1.683,4.067,1.683c1.536,0,2.98-0.598,4.066-1.684c2.243-2.242,2.243-5.892,0-8.134
					C70.48,67.568,69.036,66.97,67.5,66.97z"/>
			</g>
		</g>
	</g>
	<g>
		<path class="st205" d="M67.5,111.597c-0.829,0-1.5-0.671-1.5-1.5V96.192c0-0.829,0.671-1.5,1.5-1.5s1.5,0.671,1.5,1.5v13.904
			C69,110.925,68.329,111.597,67.5,111.597z"/>
	</g>
</g>
</svg>
