<svg width="135" height="135" viewBox="0 0 135 135" fill="none" xmlns="http://www.w3.org/2000/svg">
<path d="M129.193 52.855C128.205 49.806 125.578 47.585 122.409 47.137L89.676 42.37L75.035 12.699C73.625 9.83899 70.7 8.01999 67.501 8.01999C64.302 8.01999 61.378 9.83799 59.966 12.699L45.326 42.37L12.59 47.138C9.42102 47.586 6.79602 49.807 5.80502 52.856C4.82402 55.895 5.64002 59.238 7.93302 61.465L31.625 84.546L26.026 117.159C25.484 120.311 26.78 123.495 29.371 125.38C31.972 127.251 35.395 127.506 38.225 126.009L67.501 110.626L96.777 126.009C98.006 126.661 99.348 126.98 100.686 126.98C102.428 126.98 104.164 126.445 105.629 125.38C108.218 123.495 109.513 120.312 108.972 117.159L103.373 84.546L127.064 61.465C129.358 59.237 130.179 55.895 129.193 52.855Z" fill="#DEDEDE"/>
<path d="M67.5 8.021C64.302 8.023 61.378 9.839 59.966 12.7L45.326 42.37L12.59 47.138C9.42102 47.586 6.79602 49.807 5.80502 52.856C4.82402 55.895 5.64002 59.238 7.93302 61.465L31.625 84.546L26.026 117.159C25.484 120.311 26.78 123.495 29.371 125.38C31.972 127.251 35.395 127.506 38.225 126.009L67.5 110.626V8.021Z" fill="#E3E3E3"/>
<path d="M100.687 128.479C99.083 128.479 97.487 128.083 96.075 127.333L67.501 112.32L38.922 127.336C37.511 128.083 35.917 128.479 34.316 128.479C32.219 128.479 30.206 127.829 28.495 126.598C25.415 124.357 23.905 120.645 24.548 116.905L30.013 85.07L6.886 62.539C4.212 59.941 3.226 55.958 4.378 52.394C5.557 48.766 8.624 46.184 12.38 45.652L44.33 41L58.621 12.036C60.275 8.685 63.761 6.521 67.501 6.521C71.243 6.521 74.729 8.686 76.38 12.037L90.672 41L122.626 45.654C126.379 46.185 129.445 48.768 130.621 52.394C131.776 55.956 130.791 59.939 128.112 62.541L104.986 85.07L110.451 116.905C111.093 120.645 109.584 124.357 106.513 126.593C104.812 127.827 102.798 128.479 100.687 128.479ZM67.501 109.126C67.741 109.126 67.98 109.184 68.199 109.298L97.475 124.681C99.764 125.895 102.669 125.676 104.748 124.166C106.889 122.608 107.941 120.02 107.494 117.413L101.896 84.8C101.813 84.313 101.974 83.817 102.328 83.472L126.019 60.391C127.887 58.577 128.572 55.801 127.767 53.318C126.948 50.792 124.815 48.993 122.2 48.623L89.46 43.854C88.972 43.783 88.549 43.476 88.331 43.033L73.69 13.363C72.539 11.029 70.11 9.521 67.501 9.521C64.893 9.521 62.463 11.029 61.311 13.364L46.671 43.034C46.453 43.477 46.03 43.784 45.542 43.855L12.806 48.623C10.186 48.994 8.053 50.793 7.231 53.32C6.429 55.803 7.114 58.579 8.978 60.39L32.672 83.473C33.026 83.817 33.187 84.314 33.104 84.801L27.505 117.414C27.057 120.02 28.11 122.608 30.254 124.168C32.351 125.678 35.246 125.89 37.524 124.684L66.804 109.299C67.021 109.184 67.261 109.126 67.501 109.126Z" fill="#33363A"/>
<path d="M67.5 94.605C79.6121 94.605 89.431 84.7861 89.431 72.674C89.431 60.5618 79.6121 50.743 67.5 50.743C55.3878 50.743 45.569 60.5618 45.569 72.674C45.569 84.7861 55.3878 94.605 67.5 94.605Z" fill="#FF8F8F"/>
<path d="M89.431 72.674C89.431 81.951 79.612 89.474 67.5 89.474C55.388 89.474 45.569 81.952 45.569 72.674C45.569 63.399 55.387 55.877 67.5 55.877C79.611 55.877 89.431 63.398 89.431 72.674Z" fill="#FF1A1A"/>
<path d="M45.569 72.674C45.569 84.787 55.387 94.606 67.5 94.606C79.611 94.606 89.431 84.788 89.431 72.674H45.569Z" fill="white"/>
<path d="M67.5 89.474C79.611 89.474 89.431 81.952 89.431 72.674H45.569C45.569 81.951 55.388 89.474 67.5 89.474Z" fill="#D8E5EA"/>
<path d="M67.5 96.105C54.58 96.105 44.069 85.594 44.069 72.673C44.069 59.754 54.58 49.243 67.5 49.243C80.42 49.243 90.931 59.754 90.931 72.673C90.931 85.594 80.42 96.105 67.5 96.105ZM67.5 52.244C56.234 52.244 47.069 61.409 47.069 72.674C47.069 83.94 56.234 93.106 67.5 93.106C78.766 93.106 87.931 83.94 87.931 72.674C87.931 61.409 78.766 52.244 67.5 52.244Z" fill="#33363A"/>
<path d="M89.431 74.174H45.569C44.74 74.174 44.069 73.503 44.069 72.674C44.069 71.845 44.74 71.174 45.569 71.174H89.43C90.259 71.174 90.93 71.845 90.93 72.674C90.93 73.503 90.259 74.174 89.431 74.174Z" fill="#33363A"/>
<path d="M67.5 82.439C71.5052 82.439 74.752 79.1921 74.752 75.187C74.752 71.1818 71.5052 67.935 67.5 67.935C63.4948 67.935 60.248 71.1818 60.248 75.187C60.248 79.1921 63.4948 82.439 67.5 82.439Z" fill="#A7BBC1"/>
<path d="M67.5 79.974C71.5052 79.974 74.752 76.7271 74.752 72.722C74.752 68.7168 71.5052 65.47 67.5 65.47C63.4948 65.47 60.248 68.7168 60.248 72.722C60.248 76.7271 63.4948 79.974 67.5 79.974Z" fill="white"/>
<path d="M62.372 77.85C59.541 75.018 59.541 70.426 62.372 67.594C65.204 64.762 69.796 64.762 72.627 67.594" fill="#D8E5EA"/>
<path d="M67.5 81.472C65.163 81.472 62.965 80.562 61.312 78.91C57.9 75.497 57.9 69.945 61.311 66.533C62.964 64.88 65.162 63.97 67.5 63.97C69.838 63.97 72.035 64.881 73.688 66.533C77.1 69.945 77.1 75.498 73.688 78.91C72.035 80.562 69.837 81.472 67.5 81.472ZM67.5 66.97C65.963 66.97 64.519 67.568 63.433 68.655C61.191 70.898 61.191 74.547 63.433 76.79C64.518 77.875 65.963 78.473 67.5 78.473C69.036 78.473 70.48 77.875 71.566 76.789C73.809 74.547 73.809 70.897 71.566 68.655C70.48 67.568 69.036 66.97 67.5 66.97Z" fill="#33363A"/>
<path d="M67.5 111.597C66.671 111.597 66 110.926 66 110.097V96.192C66 95.363 66.671 94.692 67.5 94.692C68.329 94.692 69 95.363 69 96.192V110.096C69 110.925 68.329 111.597 67.5 111.597Z" fill="#33363A"/>
</svg>
